<svg width="48" height="37" viewBox="0 0 48 37" fill="none" xmlns="http://www.w3.org/2000/svg">
<path d="M40.6605 3.09881C37.5126 1.63216 34.1824 0.590034 30.7579 0C30.3313 0.767935 29.8329 1.80081 29.4892 2.62252C25.797 2.06961 22.1387 2.06961 18.5143 2.62252C18.1708 1.801 17.6612 0.767935 17.2307 0C13.8028 0.590291 10.4697 1.63507 7.32036 3.10647C1.05336 12.537 -0.645575 21.733 0.203799 30.7988C4.36049 33.8898 8.38873 35.7675 12.3491 36.9963C13.3334 35.6485 14.2035 34.2215 14.9503 32.7301C13.5283 32.1911 12.1575 31.5268 10.8542 30.745C11.1971 30.4919 11.5321 30.228 11.8584 29.954C19.7563 33.6325 28.3378 33.6325 36.1415 29.954C36.4693 30.2262 36.8041 30.49 37.1456 30.745C35.8402 31.5289 34.4668 32.1945 33.042 32.7341C33.7931 34.2315 34.6616 35.6598 35.6432 37C39.6073 35.7715 43.6393 33.8937 47.796 30.7988C48.7927 20.2893 46.0935 11.1777 40.6605 3.09881ZM16.0264 25.2235C13.6554 25.2235 11.711 23.0194 11.711 20.3354C11.711 17.6515 13.614 15.4437 16.0264 15.4437C18.4387 15.4437 20.3831 17.6476 20.3417 20.3354C20.3454 23.0194 18.4389 25.2235 16.0264 25.2235ZM31.9734 25.2235C29.6025 25.2235 27.6583 23.0194 27.6583 20.3354C27.6583 17.6515 29.561 15.4437 31.9734 15.4437C34.386 15.4437 36.3302 17.6476 36.2887 20.3354C36.2887 23.0194 34.386 25.2235 31.9734 25.2235Z" fill="#5865F2"/>
</svg>
